<?xml version="1.0" encoding="utf-8"?>
<!-- Generator: pic2svg -->
<svg xmlns="http://www.w3.org/2000/svg" viewBox="0 0 29 46">
<path d="M7.5,12.5L7.5,15.5L6.5,15.5L6.5,18.5L5.5,18.5L6.5,18.5L6.5,20.5L4.5,20.5L4.5,22.5L2.5,22.5L2.5,19.5L3.5,19.5L3.5,16.5L4.5,16.5L4.5,14.5L5.5,14.5L5.5,12.5Z M23.5,12.5L23.5,14.5L24.5,14.5L24.5,16.5L22.5,16.5L22.5,15.5L21.5,15.5L21.5,12.5Z M9.5,14.5L9.5,16.5L7.5,16.5L7.5,14.5Z M13.5,14.5L13.5,16.5L12.5,16.5L12.5,18.5L10.5,18.5L10.5,15.5L11.5,15.5L11.5,14.5Z M17.5,14.5L17.5,15.5L18.5,15.5L18.5,18.5L16.5,18.5L16.5,16.5L15.5,16.5L15.5,14.5Z M21.5,14.5L21.5,16.5L19.5,16.5L19.5,14.5Z M10.5,18.5L10.5,24.5L7.5,24.5L7.5,19.5L8.5,19.5L8.5,18.5Z M18.5,18.5L18.5,24.5L16.5,24.5L16.5,23.5L16.5,24.5L12.5,24.5L12.5,23.5L12.5,24.5L10.5,24.5L10.5,20.5L11.5,20.5L11.5,19.5L16.5,19.5L16.5,18.5Z M20.5,21.5L20.5,24.5L18.5,24.5L18.5,21.5Z M26.5,21.5L26.5,32.5L25.5,32.5L25.5,33.5L22.5,33.5L22.5,24.5L23.5,24.5L23.5,21.5Z M22.5,22.5L22.5,24.5L20.5,24.5L20.5,22.5Z M6.5,23.5L6.5,32.5L5.5,32.5L5.5,33.5L3.5,33.5L3.5,32.5L2.5,32.5L2.5,30.5L4.5,30.5L4.5,31.5L4.5,26.5L2.5,26.5L2.5,23.5Z M24.5,28.5L24.5,29.5Z M4.5,34.5L4.5,35.5L4.5,34.5L6.5,34.5L6.5,36.5L5.5,36.5L5.5,38.5L4.5,38.5L4.5,40.5L3.5,40.5L3.5,41.5L0.5,41.5L0.5,39.5L1.5,38.5L1.5,37.5L2.5,36.5L2.5,34.5Z M24.5,34.5L24.5,35.5L24.5,34.5L26.5,34.5L26.5,36.5L27.5,37.5L27.5,38.5L28.5,39.5L28.5,41.5L25.5,41.5L25.5,40.5L24.5,40.5L24.5,38.5L23.5,38.5L23.5,36.5L22.5,36.5L22.5,34.5Z M0,0Z M0,0Z M0,0Z M0,0Z M3.5,42.5L3.5,43.5L2.5,44.5L1.5,43.5L1.5,42.5Z M27.5,42.5L27.5,43.5L26.5,44.5L25.5,43.5L25.5,42.5Z " fill="#BD867C"/>
<path d="" fill="#000000" opacity="0"/>
<path d="M14,8L14.5,8.5L14.5,9.5L10.5,9.5L10.5,10.5L8.5,10.5L8.5,11.5L6.5,11.5L6.5,12.5L5.5,12.5L5.5,13.5L4.5,13.5L4.5,15.5L3.5,15.5L3.5,17.5L2.5,17.5L2.5,20.5L1.5,20.5L1.5,29.5L2.5,29.5L2.5,31.5L3.5,32.5L3.5,33.5L2.5,33.5L2.5,34.5L3,34.5L3,37L2,37L2,39L1,39L1,41L1.5,41.5L2.5,41.5L2.5,42.5L2,43L2,44L3,44L3,43L2.5,42.5L2.5,41.5L3.5,41.5L3.5,40.5L4,40L4,39L4.5,38.5L5,38L5,37L5.5,36.5L6,36L6,34.5L6.5,34.5L6.5,33.5L7.5,33.5L7.5,31.5L10.5,31.5L10.5,33.5L9.5,33.5L9.5,34.5L8.5,34.5L8.5,35.5L7.5,35.5L7.5,37.5L6.5,37.5L6.5,39.5L5.5,39.5L5.5,40.5L7.5,40.5L7.5,41.5L9.5,41.5L9.5,44.5L12.5,44.5L12.5,41.5L16.5,41.5L16.5,44.5L19.5,44.5L19.5,41.5L21.5,41.5L21.5,40.5L23.5,40.5L23.5,39.5L22.5,39.5L22.5,37.5L21.5,37.5L21.5,35.5L20.5,35.5L20.5,34.5L19.5,34.5L19.5,33.5L18.5,33.5L18.5,31.5L21.5,31.5L21.5,30.5L22.5,30.5L23,31L23,32L22.5,32.5L22.5,33.5L21.5,33.5L22.5,33.5L22.5,34.5L23,34.5L23,36L23.5,36.5L24,37L24,38L24.5,38.5L25,39L25,40L25.5,40.5L25.5,41.5L26.5,41.5L26.5,42.5L26,43L26,44L27,44L27,43L26.5,42.5L26.5,41.5L27.5,41.5L28,41L28,39L27,39L27,37L26,37L26,34.5L26.5,34.5L26.5,33.5L25.5,33.5L25.5,32.5L26.5,31.5L26.5,29.5L27.5,29.5L27.5,20.5L26.5,20.5L26.5,17.5L25.5,17.5L25.5,15.5L24.5,15.5L24.5,13.5L23.5,13.5L23.5,12.5L22.5,12.5L22.5,11.5L20.5,11.5L20.5,10.5L18.5,10.5L18.5,9.5L14.5,9.5L14.5,8.5L15.5,7.5L16,8L19,8L19,9L21,9L21,10L23,10L23,11L24,11L24,12L25,12L25,13L26,13L26,15L27,15L27,17L28,17L28,20L29,20L29,30L28,30L28,32L27,32L27,33L28,33L28,35L27,35L27,37L28,37L28,39L29,39L29,42L28,42L28,44L27,44L27,45L26,45L26,44L25,44L25,42L22,42L22,43L21,43L21,45L20,45L20,46L16,46L16,45L15,45L15,43L14,43L14,45L13,45L13,46L9,46L9,45L8,45L8,43L7,43L7,42L4,42L4,44L3,44L3,45L2,45L2,44L1,44L1,42L0,42L0,39L1,39L1,37L2,37L2,35L1,35L1,33L2,33L2,32L1,32L1,30L0,30L0,20L1,20L1,17L2,17L2,15L3,15L3,13L4,13L4,12L5,12L5,11L6,11L6,10L8,10L8,9L10,9L10,8Z M9.5,24.5L9.5,25.5L11.5,25.5L11.5,27.5L6.5,27.5L6.5,25.5L7.5,25.5L7.5,24.5Z M20.5,24.5L20.5,25.5L22.5,25.5L22.5,27.5L17.5,27.5L17.5,25.5L18.5,25.5L18.5,24.5Z M6.5,30.5L7.5,30.5L7.5,32.5L6,32.5L6,31Z " fill="#2D151E"/>
<path d="M6.5,20L6.5,21.5L5.5,21.5L5.5,22.5L4.5,22.5L4.5,23.5L2.5,23.5L2.5,22L4,22L4,20Z M10.5,22.5L11,23L11,24L11.5,24.5L11.5,25.5L11.5,24.5L13.5,24.5L13.5,25.5L15.5,25.5L15.5,24.5L17.5,24.5L17.5,25.5L17.5,24.5L18,24L18,23L18.5,22.5L19,23L19,24L19.5,24.5L19,25L19,26L18,26L18,27L18.5,27.5L18.5,30.5L20.5,30.5L20.5,31.5L20,32L19,32L18.5,32.5L10.5,32.5L10,32L9,32L8.5,31.5L8.5,30.5L10.5,30.5L10.5,27.5L11,27L11,26L10,26L9.5,25.5L9.5,24.5L10,24L10,23Z M7.5,23.5L8.5,24.5L8,25L8,26L6.5,26L6.5,23.5Z M21.5,24.5L21.5,25.5L21,26L20,26L20,24.5Z M24.5,28.5L25,29L25,30L24,30L24,29Z M17.5,32.5L17.5,34.5L11.5,34.5L11.5,32.5Z M7.5,35.5L8.5,35.5L8.5,39.5L7.5,39.5L7.5,40.5L6.5,40.5L6,41L5,41L5,39L6,39L6,38L6.5,37.5L7,37L7,36Z M21.5,35.5L22,36L22,37L22.5,37.5L23,38L23,39L24,39L24,41L23,41L22.5,40.5L21.5,40.5L21.5,39.5L20.5,39.5L20.5,35.5Z " fill="#FFEBD7"/>
<path d="M12.5,37.5L12.5,39.5L12.5,37.5L14.5,37.5L14.5,38.5L14.5,37.5L16.5,37.5L16.5,39.5L16.5,37.5L18.5,37.5L18.5,38.5L20.5,38.5L20.5,39.5L21.5,39.5L21.5,41.5L17.5,41.5L17.5,40.5L17.5,41.5L11.5,41.5L11.5,40.5L11.5,41.5L7.5,41.5L7.5,39.5L8.5,39.5L8.5,38.5L10.5,38.5L10.5,37.5Z M9.5,42.5L10.5,42.5L10.5,44.5L9.5,44.5L9,44L9,43Z M12.5,42.5L13,43L13,44L12.5,44.5L11.5,44.5L11.5,42.5Z M16.5,42.5L17.5,42.5L17.5,44.5L16.5,44.5L16,44L16,43Z M19.5,42.5L20,43L20,44L19.5,44.5L18.5,44.5L18.5,42.5Z " fill="#EAB79E"/>
<path d="M17.5,1.5L18.5,2.5L19,3L19,4L18,4L18,6L17,6L17,7L16,7L16,8L15,8L15,9.5L14,9.5L14,8L15,8L15,7L16,7L16,6L17,6L17,3L16,3L16,1.5Z M10.5,9.5L18.5,9.5L19.5,10.5L20.5,10.5L21.5,11.5L22.5,11.5L23.5,12.5L24.5,13.5L24.5,14.5L25.5,15.5L25.5,16.5L26.5,17.5L26.5,19.5L27.5,20.5L27.5,29.5L27,30L27,32L26,32L26,33.5L25,33.5L25,32L26,32L26,22L25.5,21.5L25.5,20.5L24.5,20.5L24.5,17.5L23.5,17.5L23.5,16.5L24,16L24,15L23,15L23,13L22,13L21.5,13.5L20.5,13.5L20.5,12.5L18.5,12.5L18.5,11.5L10.5,11.5L10.5,12.5L8.5,12.5L8.5,13.5L7.5,13.5L7,13L6,13L6,15L5,15L5,17L4,17L4,20L3,20L3,23L3.5,23.5L3,24L3,26L3.5,26.5L3.5,30.5L3,31L3,32L4,32L4,33.5L3,33.5L3,32L2,32L2,30L1.5,29.5L1.5,20.5L2.5,19.5L2.5,17.5L3.5,16.5L3.5,15.5L4.5,14.5L4.5,13.5L5.5,12.5L6.5,11.5L7.5,11.5L8.5,10.5L9.5,10.5Z M5,34.5L5,36L6,36L6,37L5,37L5,36L4,36L4,34.5Z M25,34.5L25,36L24,36L24,37L23,37L23,36L24,36L24,34.5Z M4,37L4,38L5,38L5,39L4,39L4,38L3,38L3,37Z M26,37L26,38L25,38L25,39L24,39L24,38L25,38L25,37Z M3,39L3,40L4,40L4,41L3.5,41.5L3,41.5L3,40L2,40L2,39Z M27,39L27,40L26,40L26,41.5L25.5,41.5L25,41L25,40L26,40L26,39Z M3,41.5L3,43L2,43L2,41.5Z M27,41.5L27,43L26,43L26,41.5Z " fill="#9E6B61"/>
<path d="M19.5,12.5L19.5,13.5L21.5,13.5L21.5,14.5L22.5,15.5L22.5,16.5L21,16.5L21,15L20,15L19.5,15.5L18.5,15.5L18.5,14.5L10.5,14.5L10.5,15.5L9.5,15.5L9,15L8,15L8,16.5L7.5,16.5L7.5,17.5L6.5,17.5L6,17L6,16L6.5,15.5L7.5,14.5L7.5,13.5L9.5,13.5L9.5,12.5Z M3.5,26.5L4.5,26.5L4.5,30.5L3.5,30.5L3,30L3,27Z M7.5,32L7.5,33.5L5.5,33.5L5.5,32.5L6,32Z M11.5,33.5L12,34L13,34L13.5,34.5L14.5,34.5L14.5,36.5L10.5,36.5L10.5,33.5Z M17,34L17.5,33.5L18.5,33.5L18.5,36.5L14.5,36.5L14.5,34.5L15.5,34.5L16,34Z M10.5,44L10.5,44.5L10,45L9,45L9,44Z M20,44L20,45L19,45L18.5,44.5L18.5,44Z " fill="#ED5C76"/>
<path d="M9.5,27.5L9.5,29.5L7.5,29.5L7.5,27.5Z M10.5,27.5L11,28L11,29L10.5,29.5L9.5,29.5L9.5,27.5Z M18.5,27.5L19.5,27.5L19.5,29.5L18.5,29.5L18,29L18,28Z M21.5,27.5L21.5,29.5L19.5,29.5L19.5,27.5Z " fill="#72BDFF"/>
<path d="M10.5,21.5L11,22L11,23L10,23L10,22Z M18.5,21.5L19,21.5L19,23L18,23L18,22Z M7.5,22.5L8,23L8,24L6.5,24L6.5,22.5Z M12.5,23.5L13.5,24.5L15.5,24.5L16.5,23.5L17.5,24.5L18,25L18,26L17,26L17,25L16,25L16,26L13,26L13,25L12,25L12,26L11,26L11,25L11.5,24.5Z M6.5,24.5L7,25L7,27.5L6.5,27.5L6,27L6,25Z M9.5,24.5L10,25L10,26L9,26L9,24.5Z M23,24.5L23,27L22.5,27.5L22,27.5L22,26L21,26L21,24.5Z M6.5,27.5L7.5,27.5L7.5,30.5L6.5,30.5L6,30L6,28Z M22.5,27.5L23,28L23,30L22.5,30.5L21.5,30.5L21.5,27.5Z M25,28L25,29L24,29L24,28Z M10.5,33L10.5,34.5L9.5,34.5L9.5,35.5L8.5,35.5L8.5,36L7,36L7,35L8,35L8,34L9,34L9,33Z M20,33L20,34L21,34L21,35L22,35L22,36L20.5,36L20.5,35.5L19.5,35.5L19.5,34.5L18.5,34.5L18.5,33Z M7.5,40L7.5,41L6,41L6,40Z M23,40L23,41L21.5,41L21.5,40Z M13,41.5L13,43L12,43L11.5,43.5L10.5,43.5L10,43L9,43L9,41.5Z M20,41.5L20,43L19,43L18.5,43.5L17.5,43.5L17,43L16,43L16,41.5Z " fill="#F9C9BD"/>
<path d="M4,33L4.5,33.5L4.5,34.5L4,35L2,35L2,34L2.5,33.5L3,33Z M5.5,32.5L6.5,33.5L7,33.5L7,35L5,35L4.5,34.5L4.5,33.5Z M24,33L24.5,33.5L24.5,34.5L24,35L22,35L22,33.5L22.5,33.5L22.5,33Z M26,33L26.5,33.5L27,34L27,35L25,35L24.5,34.5L24.5,33.5L25,33Z " fill="#CEC9FC"/>
<path d="M17,0L17,1L17.5,1.5L17,2L16,2L15.5,1.5L13.5,1.5L12.5,2.5L11.5,3.5L11,4L10,4L9.5,4.5L9,5L9,6L8,6L8,4L9,4L9,3L11,3L11,2L12,2L12,1L13,1L13,0Z M19,11L19,12L21,12L21,13L22,13L22,14L21.5,14.5L20.5,13.5L19.5,13.5L18.5,12.5L10.5,12.5L9.5,13.5L8.5,13.5L7.5,14.5L7,14L7,13L8,13L8,12L10,12L10,11Z M19,14L19,15L20,15L20,16L20.5,16.5L20.5,17.5L19.5,17.5L19.5,18.5L18.5,18.5L18.5,19L17,19L17,20L13,20L12.5,19.5L11.5,19.5L11.5,18.5L12,18L12,16L11,16L11,18.5L8.5,18.5L8.5,17.5L7.5,17.5L7.5,16.5L8,16L9,16L9,15L10,15L10,14Z M13,16L13,15L12,15L12,16Z M17,16L17,15L16,15L16,16Z M18,18L18,16L17,16L17,18Z " fill="#CB978D"/>
<path d="M3,41L3.5,41.5L3,42L2,42L1.5,41.5L2,41Z M27,41L27.5,41.5L27,42L26,42L25.5,41.5L26,41Z " fill="#B70D2B"/>
<path d="M19,12L19,13L21,13L21,14L22,14L22,15L23,15L23,16.5L22,16.5L22,15L21,15L21,14L19,14L19,13L10,13L10,14L8,14L8,15L7,15L7,16L6,16L6,15L7,15L7,14L8,14L8,13L10,13L10,12Z M4,26L4.5,26.5L4.5,27L3,27L3,26Z " fill="#FC7D93"/>
<path d="M19.5,36.5L19.5,38.5L18.5,38.5L18,38L17,38L16.5,38.5L16,38L15,38L14.5,38.5L14,38L13,38L12.5,38.5L12,38L11,38L10.5,38.5L9.5,38.5L9.5,36.5Z M11.5,41L11.5,41.5L11,42L10,42L9.5,41.5L10,41Z M14,41L14.5,41.5L14,42L13,42L12.5,41.5L13,41Z M16,41L16.5,41.5L16,42L15,42L14.5,41.5L15,41Z M19,41L19.5,41.5L19,42L18,42L17.5,41.5L17.5,41Z M10.5,43.5L11.5,43.5L11.5,44.5L11,45L10,45L10,44Z M18.5,43.5L19,44L19,45L18,45L17.5,44.5L17.5,43.5Z " fill="#FFC078"/>
<path d="M9,27L9.5,27.5L9.5,28L7.5,28L7.5,27.5L8,27Z M11,27L11,28L9.5,28L9.5,27.5L10,27Z M19,27L19.5,27.5L19.5,28L18,28L18,27Z M21,27L21.5,27.5L21.5,28L19.5,28L19.5,27.5L20,27Z " fill="#052C72"/>
<path d="M4,30L4.5,29.5L5,30L5,32L6,32L6,33L5,33L5,32L4,32L4,31L3,31L3,30Z M7.5,31.5L8,31.5L8,33L7.5,33.5L7,33.5L7,32Z M15,34L15.5,34.5L14.5,35.5L13.5,34.5L14,34Z M14.5,36L14.5,36.5L14,37L12,37L11.5,36.5L12,36Z M17,36L17.5,36.5L17,37L15,37L14.5,36.5L14.5,36Z " fill="#D23F59"/>
<path d="M10.5,29.5L10.5,30.5L10,31L8.5,31L8.5,29.5Z M20.5,29.5L20.5,31L19,31L18.5,30.5L18.5,29.5Z M12,32.5L12,34L11,34L11,36L12,36L12,37L10,37L9.5,37.5L8.5,37.5L8.5,35.5L9.5,34.5L10.5,33.5L10.5,32.5Z M18.5,32.5L18.5,33.5L19.5,34.5L20.5,35.5L20.5,37.5L19.5,37.5L19,37L17,37L17,36L18,36L18,34L17,34L17,32.5Z M15,35L15,37L14,37L14,35Z " fill="#FFFCF1"/>
<path d="M19,9L19,10L21,10L21,11L23,11L23,12L24,12L24,13L25,13L25,15L26,15L26,17L27,17L27,20L28,20L28,30L27,30L27,20L26,20L26,17L25,17L25,15L24,15L24,13L23,13L23,12L21,12L21,11L19,11L19,10L10,10L10,11L8,11L8,12L6,12L6,13L5,13L5,15L4,15L4,17L3,17L3,20L2,20L2,30L1,30L1,20L2,20L2,17L3,17L3,15L4,15L4,13L5,13L5,12L6,12L6,11L8,11L8,10L10,10L10,9Z " fill="#D5A59C"/>
<path d="M10,41L10,42L8,42L7.5,41.5L7.5,41Z M11.5,40.5L12,41L13,41L13,42L11,42L11,41Z M15,41L15,42L14,42L14,41Z M17,41L17.5,40.5L18,41L18,42L16,42L16,41Z M21.5,41L21.5,41.5L21,42L19,42L19,41Z " fill="#FFD4A2"/>
<path d="M9.5,29L9.5,29.5L8.5,30.5L7.5,30.5L7.5,29Z M11,29L11,30L10.5,30.5L9.5,29.5L9.5,29Z M19.5,29L19.5,29.5L18.5,30.5L18,30L18,29Z M21.5,29L21.5,30.5L20.5,30.5L19.5,29.5L19.5,29Z " fill="#9FD2FF"/>
<path d="M9,30L9,31L8.5,31.5L7.5,31.5L7.5,30Z M11,30L11,31L10,31L10,30Z M19,30L19,31L18,31L18,30Z M21.5,30L21.5,31.5L20.5,31.5L20,31L20,30Z M10.5,32.5L11,32.5L11,34L10,34L10,35L9,35L9,34L10,34L10,33Z M18.5,32.5L19,33L19,34L20,34L20,35L19,35L19,34L18,34L18,32.5Z " fill="#DCE9F3"/>
<path d="M9.5,27.5L10,28L10,29L9.5,29.5L9,29L9,28Z M19.5,27.5L20,28L20,29L19.5,29.5L19,29L19,28Z " fill="#346499"/>
<path d="M5,33L5,35L4,35L4,33Z M25,33L25,35L24,35L24,33Z " fill="#B0A8F6"/>
<path d="M9.5,37.5L10.5,38.5L10,39L9,39L9,40L8,40L8,41L7.5,41.5L7,41L7,40L7.5,39.5L8.5,38.5L8.5,37.5Z M19.5,37.5L20.5,37.5L20.5,38.5L21.5,39.5L22,40L22,41L21.5,41.5L21,41L21,40L20,40L20,39L19,39L18.5,38.5Z " fill="#C67D5A"/>
<path d="M22.5,16.5L22.5,17.5L23.5,17.5L23.5,18.5L24.5,18.5L24.5,20.5L23.5,20.5L23.5,21.5L21.5,21.5L21.5,20.5L20.5,20.5L20.5,19.5L19.5,19.5L19.5,17.5L20.5,17.5L20.5,16.5Z M0,0Z M0,0Z " fill="#DEB384"/>
<path d="M16,1L16,2L13,2L13,3L12,3L12,4L11,4L11,3L12,3L12,2L13,2L13,1Z M18,1L18,2L19,2L19,3L18,3L18,2L17,2L17,1Z M10,4L10,5L9,5L9,4Z M11,6L11,7L9,7L9,6Z M11,18L11.5,18.5L11.5,19.5L10.5,19.5L9.5,18.5L10,18Z M19.5,18L19.5,20.5L18.5,20.5L18,20L18,18Z M10.5,19.5L11.5,19.5L11.5,20.5L10.5,21.5L10,21L10,20Z M7,22.5L7,24L6.5,24.5L5.5,23.5L5.5,22.5Z M23.5,22.5L23.5,24.5L22,24.5L22,22.5Z " fill="#B47C71"/>
<path d="M10,37L10,38L8.5,38L8.5,37Z M20.5,37L20.5,38L19,38L19,37Z " fill="#FF9B69"/>
<path d="M6.5,21L6.5,22.5L5,22.5L5,21Z M11,21L11,22L10,22L10,21Z M7.5,21.5L8,22L8,23L7,23L6.5,22.5L6.5,21.5Z M13,23L13,24L16,24L16,23L17,23L17,24L18,24L18,25L17,25L17,24L16,24L16,25L13,25L13,24L12,24L12,25L11,25L11,24L12,24L12,23Z M7,24L7,25L6,25L6,24Z M10,24L10,25L8,25L8,24Z M20.5,24L20.5,24.5L20,25L19,25L19,24Z M23.5,24L23.5,24.5L23,25L21,25L20.5,24.5L20.5,24Z M23,32L23,33L22.5,33.5L22,34L21,34L21,33L22,33L22,32Z M8,33L8,34L7,34L6.5,33.5L7,33Z " fill="#936057"/>
<path d="M9,35L9,39L8,39L8,40L7,40L7,39L8,39L8,35Z M21,35L21,39L22,39L22,40L21,40L21,39L20,39L20,35Z M7,37L7,38L6,38L6,37Z M23,37L23,38L22,38L22,37Z " fill="#FCDACB"/>
<path d="M23.5,16.5L23.5,17.5L24.5,17.5L24.5,19L23,19L23,20L22,20L22,21.5L20.5,21.5L20.5,20.5L19.5,20.5L19.5,19L21,19L21,18L22,18L22,16.5Z M23,19L23,18L22,18L22,19Z M22,20L22,19L21,19L21,20Z " fill="#BA9367"/>
<path d="M23,16L23.5,16.5L24.5,17.5L25,18L25,20.5L24.5,20.5L24.5,21.5L23.5,21.5L23.5,22.5L20.5,22.5L20.5,21.5L19.5,21.5L19.5,20.5L19,20.5L19,18L19.5,17.5L20.5,16.5L21,16Z M21,20L21,21L23,21L23,20L24,20L24,18L23,18L23,17L21,17L21,18L20,18L20,20Z M7.5,20.5L8,21L8,22L7,22L7,23L6,23L6,24L3,24L3,23L4,23L4.5,22.5L5.5,22.5L6.5,21.5L6.5,20.5Z " fill="#FFCD81"/>
<path d="M8,16L8,17L9,17L9,18L10,18L10,19L11,19L11,18L12,18L12,19L13,19L13,20L12,20L12,21L11,21L11,20L10,20L10,19L9,19L9,20L8,20L8,21L6.5,21L6.5,20.5L6,20L6,19L5,19L5,18L6,18L6,17L7,17L7,16Z M7.5,18.5L7.5,19.5L7.5,18.5L8.5,18.5L7.5,18.5L7.5,17.5L7.5,18.5L6.5,18.5Z M0,0Z " fill="#AA7267"/>
<path d="M8,27L8,28L7.5,28.5L6.5,27.5L7,27Z M22,27L22.5,27.5L21.5,28.5L21,28L21,27Z " fill="#DBD0CC"/>
<path d="M7,27L7,28L6,28L6,27Z M23,27L23,28L22,28L22,27Z " fill="#A8403D"/>
<path d="M19,20L19.5,20.5L19.5,21.5L19,22L18,22L18,20Z M26,20L26,22L25,22L24.5,21.5L24.5,20.5L25,20Z M20.5,21.5L21.5,22.5L21,23L21,25L20,25L20,21.5Z M23.5,21.5L24,21.5L24,25L23,25L23,23L22.5,22.5Z " fill="#CCD8FF"/>
<path d="M18,32L18.5,32.5L18,33L11,33L10.5,32.5L11,32Z " fill="#FFC09E"/>
<path d="M11,38L11,39L10,39L10,38Z M13,38L13,39L12.5,39.5L12,39L12,38Z M15,38L15,39L14,39L14,38Z M17,38L17,39L16.5,39.5L16,39L16,38Z M19,38L19,39L18,39L18,38Z M12,43L12,44.5L11.5,44.5L11,44L10,44L10,43Z M19,43L19,44L18,44L17.5,44.5L17,44.5L17,43Z " fill="#F3C7B1"/>
<path d="M5,26L5,30L4,30L4,26Z M14,34L14,35L13,35L13,34Z M16,34L16,35L15,35L15,34Z " fill="#E04E68"/>
<path d="M21,16L21,17L20,17L20,18L19,18L19,17L20,17L20,16Z M24,16L24,17L25,17L25,18L24,18L24,17L23,17L23,16Z M7,20L7,22L6,22L6,23L4,23L4,22L6,22L6,20Z M20,20L20,21L21,21L21,22L20,22L19.5,21.5L19,21L19,20Z M25,20L25,21L24.5,21.5L24,22L23,22L23,21L24,21L24,20Z " fill="#FFE1A2"/>
<path d="M3,33L3,34L2,34L2,33Z M7,33L7,34L6,34L6,33Z M23,33L23,34L22,34L22,33Z M27,33L27,34L26,34L26,33Z " fill="#DEDBFF"/>
<path d="M20,21L20,22L19,22L19,21Z M25,21L25,22L24,22L24,21Z M23,22L23,23L21,23L21,22Z " fill="#ABBFFF"/>
<path d="M8,41L8,42L7,42L7,41Z M22,41L22,42L21,42L21,41Z " fill="#FFAD69"/>
<path d="M13,44L13,45L11,45L11,44Z M18,44L18,45L16,45L16,44Z " fill="#FFDCB5"/>
<path d="M13,39L13,40L12,40L12,41L11,41L11,40L12,40L12,39Z M17,39L17,40L18,40L18,41L17,41L17,40L16,40L16,39Z " fill="#E1A182"/>
<path d="M10,27L10,28L9,28L9,27Z M20,27L20,28L19,28L19,27Z M8,28L8,31.5L7.5,31.5L6.5,30.5L7,30L7,28Z M22,28L22,30L22.5,30.5L21.5,31.5L21,31.5L21,28Z " fill="#FFFFFF"/>
<path d="M7,30L7,31L9,31L9,32L7,32L7,31L6,31L6,30Z M23,30L23,31L22,31L22,32L20,32L20,31L22,31L22,30Z " fill="#FFC5AB"/>
<path d="M2,41L2,42L1,42L1,41Z M4,41L4,42L3,42L3,41Z M26,41L26,42L25,42L25,41Z M28,41L28,42L27,42L27,41Z " fill="#DE3957"/>
<path d="M10,29L10,30L9,30L9,29Z M20,29L20,30L19,30L19,29Z " fill="#BDE0FF"/>
<path d="M11,32L11,33L10,33L10,32Z M19,32L19,33L18,33L18,32Z " fill="#C4D1F1"/>
<path d="M8,17L8,18L9,18L9,19L8,19L8,20L7,20L7,19L6,19L6,18L7,18L7,17Z M12,19L12,20L11,20L11,19Z " fill="#FFF1DE"/>
</svg>