<svg width="104" height="128" xmlns="http://www.w3.org/2000/svg">
  <path fill="rgb(89, 89, 89)" d="M0,40 L8,40 L8,48 L16,48 L16,16 L24,16 L24,8 L40,8 L40,0 L64,0 L64,8 L80,8 L80,16 L88,16 L88,32 L88,48 L96,48 L96,40 L104,40 L104,80 L96,80 L96,64 L88,64 L88,80 L80,80 L80,56 L72,56 L72,48 L64,48 L64,56 L40,56 L40,48 L32,48 L32,56 L24,56 L24,80 L16,80 L16,64 L8,64 L8,80 L0,80z"></path>
  <path fill="rgb(254, 0, 0)" d="M0,32 L16,32 L16,48 L8,48 L8,40 L0,40z"></path>
  <path fill="rgb(254, 0, 0)" d="M104,32 L88,32 L88,48 L96,48 L96,40 L104,40z"></path>
  <path fill="rgb(254, 239, 210)" d="M24,56 L24,72 L32,72 L32,80 L72,80 L72,72 L80,72 L80,56 L72,56 L72,48 L64,48 L64,56 L40,56 L40,48 L32,48 L32,56z"></path>
  <rect fill="rgb(128, 64, 0)" x="32" y="56" width="8" height="16"></rect>
  <rect fill="rgb(128, 64, 0)" x="64" y="56" width="8" height="16"></rect>
  <rect fill="rgb(239, 239, 239)" x="32" y="80" width="40" height="16"></rect>
  <rect fill="rgb(128, 64, 0)" x="32" y="88" width="8" height="8"></rect>
  <rect fill="rgb(128, 64, 0)" x="64" y="88" width="8" height="8"></rect>
  <rect fill="rgb(254, 0, 0)" x="40" y="80" width="8" height="16"></rect>
  <rect fill="rgb(254, 0, 0)" x="56" y="80" width="8" height="16"></rect>
  <rect fill="rgb(254, 100, 100)" x="48" y="80" width="8" height="8"></rect>
  <rect fill="rgb(254, 239, 210)" x="24" y="96" width="56" height="16"></rect>
  <rect fill="rgb(254, 0, 0)" x="32" y="96" width="40" height="16"></rect>
  <rect fill="rgb(223, 180, 6)" x="40" y="96" width="8" height="8"></rect>
  <rect fill="rgb(223, 180, 6)" x="56" y="96" width="8" height="8"></rect>
  <rect fill="rgb(254, 239, 210)" x="40" y="112" width="8" height="8"></rect>
  <rect fill="rgb(128, 64, 0)" x="40" y="120" width="8" height="8"></rect>
  <rect fill="rgb(254, 239, 210)" x="56" y="112" width="8" height="8"></rect>
  <rect fill="rgb(128, 64, 0)" x="56" y="120" width="8" height="8"></rect>
</svg>